<?xml version="1.0" standalone="no"?>
<!DOCTYPE svg PUBLIC "-//W3C//DTD SVG 20010904//EN"
 "http://www.w3.org/TR/2001/REC-SVG-20010904/DTD/svg10.dtd">
<svg version="1.0" xmlns="http://www.w3.org/2000/svg"
 width="512.000000pt" height="512.000000pt" viewBox="0 0 512.000000 512.000000"
 preserveAspectRatio="xMidYMid meet">

<g transform="translate(0.000000,512.000000) scale(0.100000,-0.100000)"
fill="#000000" stroke="none">
<path d="M1939 4167 c-111 -38 -194 -108 -242 -204 -14 -26 -45 -110 -71 -186
-87 -256 -140 -310 -400 -396 -80 -27 -168 -62 -196 -77 -117 -63 -200 -198
-208 -335 -6 -105 6 -148 93 -329 125 -257 125 -323 5 -568 -40 -81 -79 -167
-86 -191 -34 -108 -6 -263 65 -362 68 -95 123 -128 338 -200 151 -50 204 -80
270 -152 54 -59 71 -93 128 -265 69 -208 128 -288 258 -347 143 -66 260 -55
441 41 152 80 224 104 319 104 101 0 148 -15 313 -98 130 -65 164 -78 239 -87
97 -12 226 30 313 102 67 55 107 127 163 295 55 164 92 231 157 290 56 50 100
71 271 129 211 72 285 128 348 265 21 47 28 78 31 150 5 112 1 126 -94 324
-121 252 -121 316 -2 560 87 178 98 213 98 310 0 125 -43 225 -133 307 -57 53
-119 84 -244 124 -277 89 -344 153 -429 412 -56 173 -82 223 -151 288 -74 70
-162 109 -261 116 -100 7 -156 -9 -324 -93 -252 -126 -333 -126 -588 2 -74 37
-157 73 -185 80 -74 20 -160 17 -236 -9z m351 -217 c306 -148 426 -149 721 -3
208 102 275 107 386 32 57 -39 74 -71 136 -251 63 -185 99 -249 187 -331 83
-79 155 -117 336 -177 166 -55 205 -80 247 -160 22 -42 27 -66 27 -120 0 -64
-4 -76 -70 -209 -93 -188 -114 -260 -114 -381 1 -122 16 -173 109 -364 67
-136 75 -158 75 -210 0 -88 -18 -134 -75 -192 -47 -49 -58 -54 -195 -99 -189
-62 -267 -103 -349 -185 -82 -80 -123 -158 -186 -347 -38 -115 -55 -151 -86
-187 -55 -62 -117 -90 -199 -90 -60 1 -76 7 -220 77 -181 89 -242 107 -365
107 -122 0 -178 -17 -362 -107 -148 -73 -161 -77 -223 -77 -71 0 -131 24 -183
73 -39 36 -51 61 -109 230 -61 179 -93 238 -177 321 -82 81 -164 124 -347 184
-110 36 -150 54 -183 83 -58 49 -91 121 -91 198 0 55 7 75 80 226 148 305 148
415 0 719 -73 151 -80 170 -80 225 0 43 7 74 25 110 46 96 81 119 275 184 176
59 249 100 330 183 74 76 112 148 176 337 44 129 58 160 91 193 60 62 114 86
198 87 44 1 73 -10 215 -79z"/>
<path d="M2167 3156 c-139 -51 -217 -177 -204 -324 11 -115 72 -201 177 -251
46 -22 69 -26 140 -26 71 0 94 4 141 26 68 32 124 87 153 148 31 67 29 196 -3
268 -26 58 -78 110 -143 144 -55 29 -202 37 -261 15z m201 -166 c67 -41 91
-127 54 -200 -20 -42 -89 -80 -142 -80 -53 0 -122 38 -142 80 -35 70 -13 154
51 197 45 30 132 32 179 3z"/>
<path d="M3022 3128 c-22 -24 -826 -1411 -848 -1464 -11 -27 -11 -36 4 -64 10
-21 27 -37 43 -41 65 -17 56 -30 504 746 312 541 421 738 423 766 2 30 -2 41
-24 58 -35 27 -75 27 -102 -1z"/>
<path d="M2907 2131 c-72 -29 -132 -83 -164 -149 -37 -76 -39 -190 -4 -268 28
-63 90 -126 156 -156 74 -34 199 -33 275 3 74 35 110 67 145 131 27 48 30 61
30 148 0 80 -4 102 -24 140 -32 62 -77 107 -136 138 -69 35 -206 42 -278 13z
m212 -159 c44 -24 71 -74 71 -133 0 -114 -114 -179 -230 -133 -107 43 -119
196 -21 261 43 29 130 31 180 5z"/>
</g>
</svg>
